<?xml version="1.0" encoding="utf-8" standalone="no"?>
<!DOCTYPE svg PUBLIC "-//W3C//DTD SVG 1.1//EN"
  "http://www.w3.org/Graphics/SVG/1.1/DTD/svg11.dtd">
<svg xmlns:xlink="http://www.w3.org/1999/xlink" width="222pt" height="15pt" viewBox="0 0 222 15" xmlns="http://www.w3.org/2000/svg" version="1.1">
 <defs>
  <style type="text/css">*{stroke-linejoin: round; stroke-linecap: butt}</style>
 </defs>
 <g id="figure_1">
  <g id="text_1">
   <!-- $u_{\min} \leq u \leq u_{\max},\quad |\Delta u| \leq \Delta u_{\max}$ -->
   <g style="fill: #123456" transform="translate(0 12) scale(0.17 -0.17)">
    <defs>
     <path id="STIXGeneral-Italic-58" d="M 2950 762 
L 3040 704 
Q 2733 237 2560 89 
Q 2387 -58 2157 -58 
Q 1850 -58 1850 250 
Q 1850 538 2138 1510 
Q 1568 576 1257 253 
Q 947 -70 608 -70 
Q 269 -70 269 269 
Q 269 384 442 1088 
L 666 1978 
Q 755 2349 755 2406 
Q 755 2483 684 2521 
Q 614 2560 365 2560 
L 365 2650 
Q 806 2701 1325 2822 
L 1350 2803 
L 781 531 
Q 762 474 762 429 
Q 762 269 890 269 
Q 1178 269 1798 1210 
Q 2010 1530 2128 1795 
Q 2246 2061 2502 2765 
L 2976 2765 
L 2470 851 
Q 2349 390 2349 352 
Q 2349 243 2419 243 
Q 2496 243 2605 345 
Q 2714 448 2950 762 
z
" transform="scale(0.015625)"/>
     <path id="STIXGeneral-Regular-50" d="M 4960 0 
L 3565 0 
L 3565 96 
Q 3834 122 3907 208 
Q 3981 294 3981 576 
L 3981 1894 
Q 3981 2278 3869 2444 
Q 3757 2611 3488 2611 
Q 3264 2611 3107 2521 
Q 2950 2432 2803 2221 
L 2803 608 
Q 2803 301 2896 201 
Q 2989 102 3264 96 
L 3264 0 
L 1830 0 
L 1830 96 
Q 2112 115 2189 188 
Q 2266 262 2266 550 
L 2266 1901 
Q 2266 2611 1850 2611 
Q 1670 2611 1468 2531 
Q 1267 2451 1171 2336 
Q 1088 2240 1088 2227 
L 1088 448 
Q 1088 243 1177 176 
Q 1267 109 1523 96 
L 1523 0 
L 102 0 
L 102 96 
Q 371 102 460 195 
Q 550 288 550 563 
L 550 2150 
Q 550 2387 499 2480 
Q 448 2573 326 2573 
Q 230 2573 122 2547 
L 122 2656 
Q 557 2778 1011 2944 
L 1062 2925 
L 1062 2451 
L 1075 2451 
Q 1363 2752 1584 2848 
Q 1805 2944 2054 2944 
Q 2560 2944 2733 2406 
Q 3232 2944 3776 2944 
Q 4518 2944 4518 1792 
L 4518 493 
Q 4518 282 4582 202 
Q 4646 122 4794 109 
L 4960 96 
L 4960 0 
z
" transform="scale(0.015625)"/>
     <path id="STIXGeneral-Regular-4c" d="M 1152 4045 
Q 1152 3904 1056 3811 
Q 960 3718 819 3718 
Q 685 3718 592 3811 
Q 499 3904 499 4045 
Q 499 4179 595 4275 
Q 691 4371 826 4371 
Q 966 4371 1059 4275 
Q 1152 4179 1152 4045 
z
M 1619 0 
L 102 0 
L 102 96 
Q 435 115 521 211 
Q 608 307 608 666 
L 608 2118 
Q 608 2342 563 2432 
Q 518 2522 397 2522 
Q 243 2522 128 2490 
L 128 2592 
L 1120 2944 
L 1146 2918 
L 1146 672 
Q 1146 314 1226 218 
Q 1306 122 1619 96 
L 1619 0 
z
" transform="scale(0.015625)"/>
     <path id="STIXGeneral-Regular-51" d="M 3104 0 
L 1773 0 
L 1779 96 
Q 2016 115 2096 233 
Q 2176 352 2176 672 
L 2176 1946 
Q 2176 2592 1709 2592 
Q 1549 2592 1408 2515 
Q 1267 2438 1050 2227 
L 1050 461 
Q 1050 269 1136 192 
Q 1222 115 1466 96 
L 1466 0 
L 115 0 
L 115 96 
Q 358 115 435 214 
Q 512 314 512 602 
L 512 2157 
Q 512 2394 467 2483 
Q 422 2573 288 2573 
Q 160 2573 102 2547 
L 102 2656 
Q 550 2784 979 2944 
L 1030 2925 
L 1030 2426 
L 1037 2426 
Q 1491 2944 1958 2944 
Q 2323 2944 2518 2688 
Q 2714 2432 2714 1958 
L 2714 544 
Q 2714 288 2790 205 
Q 2867 122 3104 96 
L 3104 0 
z
" transform="scale(0.015625)"/>
     <path id="STIXGeneral-Regular-477" d="M 4026 326 
L 410 2074 
L 410 2138 
L 4026 3898 
L 4026 3482 
L 1261 2106 
L 4026 730 
L 4026 326 
z
M 4026 -659 
L 410 -659 
L 410 -237 
L 4026 -237 
L 4026 -659 
z
" transform="scale(0.015625)"/>
     <path id="STIXGeneral-Regular-44" d="M 2829 422 
L 2829 243 
Q 2586 -64 2253 -64 
Q 1888 -64 1843 403 
L 1837 403 
Q 1427 -64 909 -64 
Q 608 -64 422 112 
Q 237 288 237 602 
Q 237 1050 685 1350 
Q 992 1555 1837 1869 
L 1837 2214 
Q 1837 2502 1699 2646 
Q 1562 2790 1338 2790 
Q 1146 2790 1018 2697 
Q 890 2605 890 2477 
Q 890 2419 909 2348 
Q 928 2278 928 2208 
Q 928 2112 841 2029 
Q 755 1946 634 1946 
Q 525 1946 441 2029 
Q 358 2112 358 2240 
Q 358 2547 685 2752 
Q 986 2944 1421 2944 
Q 1939 2944 2176 2656 
Q 2291 2522 2323 2384 
Q 2355 2246 2355 1946 
L 2355 723 
Q 2355 301 2554 301 
Q 2682 301 2829 422 
z
M 1837 813 
L 1837 1715 
Q 1248 1510 1018 1293 
Q 800 1094 800 800 
Q 800 557 921 432 
Q 1043 307 1242 307 
Q 1453 307 1613 410 
Q 1747 506 1792 589 
Q 1837 672 1837 813 
z
" transform="scale(0.015625)"/>
     <path id="STIXGeneral-Regular-5b" d="M 3066 0 
L 1779 0 
L 1779 96 
Q 1939 109 1987 137 
Q 2035 166 2035 250 
Q 2035 307 1997 365 
L 1414 1261 
L 909 474 
Q 781 275 781 211 
Q 781 96 1037 96 
L 1037 0 
L 109 0 
L 109 96 
Q 269 109 355 169 
Q 442 230 576 422 
L 1306 1478 
L 704 2400 
Q 557 2624 454 2704 
Q 352 2784 211 2784 
L 154 2784 
L 154 2880 
L 1478 2880 
L 1478 2784 
Q 1203 2778 1203 2643 
Q 1203 2509 1498 2074 
Q 1581 1958 1587 1946 
Q 1619 1990 1779 2227 
Q 1811 2285 1856 2349 
Q 1901 2413 1923 2451 
Q 1946 2490 1971 2528 
Q 1997 2566 2006 2595 
Q 2016 2624 2016 2643 
Q 2016 2765 1760 2784 
L 1760 2880 
L 2771 2880 
L 2771 2784 
Q 2445 2771 2253 2502 
L 1722 1734 
L 2541 480 
Q 2790 96 3066 96 
L 3066 0 
z
" transform="scale(0.015625)"/>
     <path id="STIXGeneral-Regular-f" d="M 531 -902 
L 467 -781 
Q 998 -422 998 -96 
Q 998 -13 909 -13 
Q 883 -13 822 -25 
Q 762 -38 723 -38 
Q 352 -38 352 288 
Q 352 454 457 553 
Q 563 653 736 653 
Q 954 653 1101 496 
Q 1248 339 1248 96 
Q 1248 -198 1053 -473 
Q 858 -749 531 -902 
z
" transform="scale(0.015625)"/>
     <path id="STIXGeneral-Regular-5f" d="M 851 -90 
L 429 -90 
L 429 4326 
L 851 4326 
L 851 -90 
z
" transform="scale(0.015625)"/>
     <path id="STIXGeneral-Regular-254" d="M 4320 0 
L 307 0 
L 2221 4314 
L 2349 4314 
L 4320 0 
z
M 3354 589 
L 2118 3405 
L 870 589 
L 3354 589 
z
" transform="scale(0.015625)"/>
    </defs>
    <use xlink:href="#STIXGeneral-Italic-58" transform="translate(0 0.40625)"/>
    <use xlink:href="#STIXGeneral-Regular-50" transform="translate(49.999954 -14.59375) scale(0.7)"/>
    <use xlink:href="#STIXGeneral-Regular-4c" transform="translate(104.459903 -14.59375) scale(0.7)"/>
    <use xlink:href="#STIXGeneral-Regular-51" transform="translate(123.919884 -14.59375) scale(0.7)"/>
    <use xlink:href="#STIXGeneral-Regular-477" transform="translate(195.086752 0.40625)"/>
    <use xlink:href="#STIXGeneral-Italic-58" transform="translate(283.586691 0.40625)"/>
    <use xlink:href="#STIXGeneral-Regular-477" transform="translate(353.586645 0.40625)"/>
    <use xlink:href="#STIXGeneral-Italic-58" transform="translate(442.086584 0.40625)"/>
    <use xlink:href="#STIXGeneral-Regular-50" transform="translate(492.086538 -14.59375) scale(0.7)"/>
    <use xlink:href="#STIXGeneral-Regular-44" transform="translate(546.546487 -14.59375) scale(0.7)"/>
    <use xlink:href="#STIXGeneral-Regular-5b" transform="translate(577.626461 -14.59375) scale(0.7)"/>
    <use xlink:href="#STIXGeneral-Regular-f" transform="translate(628.793329 0.40625)"/>
    <use xlink:href="#STIXGeneral-Regular-5f" transform="translate(773.793299 0.40625)"/>
    <use xlink:href="#STIXGeneral-Regular-254" transform="translate(793.793283 0.40625)"/>
    <use xlink:href="#STIXGeneral-Italic-58" transform="translate(865.993219 0.40625)"/>
    <use xlink:href="#STIXGeneral-Regular-5f" transform="translate(915.993173 0.40625)"/>
    <use xlink:href="#STIXGeneral-Regular-477" transform="translate(955.993158 0.40625)"/>
    <use xlink:href="#STIXGeneral-Regular-254" transform="translate(1044.493097 0.40625)"/>
    <use xlink:href="#STIXGeneral-Italic-58" transform="translate(1116.693033 0.40625)"/>
    <use xlink:href="#STIXGeneral-Regular-50" transform="translate(1166.692987 -14.59375) scale(0.7)"/>
    <use xlink:href="#STIXGeneral-Regular-44" transform="translate(1221.152936 -14.59375) scale(0.7)"/>
    <use xlink:href="#STIXGeneral-Regular-5b" transform="translate(1252.23291 -14.59375) scale(0.7)"/>
   </g>
  </g>
 </g>
</svg>
