<?xml version="1.0" encoding="utf-8" standalone="no"?>
<!DOCTYPE svg PUBLIC "-//W3C//DTD SVG 1.1//EN"
  "http://www.w3.org/Graphics/SVG/1.1/DTD/svg11.dtd">
<svg xmlns:xlink="http://www.w3.org/1999/xlink" width="121pt" height="24pt" viewBox="0 0 121 24" xmlns="http://www.w3.org/2000/svg" version="1.1">
 <defs>
  <style type="text/css">*{stroke-linejoin: round; stroke-linecap: butt}</style>
 </defs>
 <g id="figure_1">
  <g id="text_1">
   <!-- $i_q^* = \mathrm{PI}_\omega(n^* - n)$ -->
   <g style="fill: #123456" transform="translate(0 16) scale(0.17 -0.17)">
    <defs>
     <path id="STIXGeneral-Italic-4c" d="M 1690 3834 
Q 1690 3699 1597 3603 
Q 1504 3507 1376 3507 
Q 1235 3507 1152 3600 
Q 1069 3693 1069 3846 
Q 1069 3994 1155 4090 
Q 1242 4186 1370 4186 
Q 1498 4186 1594 4080 
Q 1690 3974 1690 3834 
z
M 1421 730 
L 1504 659 
Q 1235 243 1049 86 
Q 864 -70 627 -70 
Q 314 -70 314 282 
Q 314 467 454 992 
L 762 2125 
Q 819 2330 819 2406 
Q 819 2502 745 2528 
Q 672 2554 410 2560 
L 410 2662 
Q 704 2688 1434 2822 
L 1459 2803 
L 858 608 
Q 794 390 794 326 
Q 794 230 883 230 
Q 1043 230 1421 730 
z
" transform="scale(0.015625)"/>
     <path id="STIXGeneral-Regular-d" d="M 1715 3014 
L 1773 2976 
Q 2010 2822 2387 2758 
Q 2605 2726 2688 2665 
Q 2771 2605 2771 2483 
Q 2771 2374 2707 2304 
Q 2643 2234 2541 2234 
Q 2381 2234 2157 2515 
Q 2010 2694 1715 2886 
L 1664 2918 
L 1664 2861 
Q 1664 2502 1792 2157 
Q 1850 1997 1850 1946 
Q 1850 1850 1770 1773 
Q 1690 1696 1594 1696 
Q 1504 1696 1433 1766 
Q 1363 1837 1363 1926 
Q 1363 2016 1440 2227 
Q 1542 2502 1542 2861 
L 1542 2918 
Q 1286 2758 1210 2688 
Q 1133 2611 947 2400 
Q 806 2240 672 2240 
Q 563 2240 499 2304 
Q 435 2368 435 2470 
Q 435 2592 528 2656 
Q 621 2720 838 2758 
Q 1062 2803 1180 2848 
Q 1299 2893 1498 3014 
Q 1222 3181 877 3251 
Q 640 3302 544 3366 
Q 448 3430 448 3546 
Q 448 3648 505 3715 
Q 563 3782 659 3782 
Q 787 3782 973 3578 
Q 1242 3277 1542 3110 
L 1542 3194 
Q 1542 3456 1446 3776 
Q 1376 3987 1376 4109 
Q 1376 4198 1443 4262 
Q 1510 4326 1606 4326 
Q 1702 4326 1772 4259 
Q 1843 4192 1843 4096 
Q 1843 3994 1773 3795 
Q 1664 3507 1664 3264 
L 1664 3110 
Q 1882 3238 2035 3379 
Q 2067 3411 2153 3504 
Q 2240 3597 2291 3648 
Q 2342 3699 2409 3747 
Q 2477 3795 2528 3795 
Q 2637 3795 2701 3728 
Q 2765 3661 2765 3552 
Q 2765 3424 2691 3363 
Q 2618 3302 2432 3277 
Q 2074 3219 1715 3014 
z
" transform="scale(0.015625)"/>
     <path id="STIXGeneral-Italic-54" d="M 3098 2739 
L 2042 -966 
Q 2029 -1018 2029 -1037 
Q 2029 -1235 2394 -1235 
L 2490 -1235 
L 2490 -1338 
L 973 -1338 
L 973 -1235 
Q 1267 -1216 1382 -1139 
Q 1498 -1062 1555 -877 
L 2131 979 
Q 1754 378 1466 154 
Q 1178 -70 800 -70 
Q 499 -70 329 128 
Q 160 326 160 672 
Q 160 1165 445 1670 
Q 730 2176 1168 2499 
Q 1606 2822 2035 2822 
Q 2438 2822 2528 2426 
L 2630 2739 
L 3098 2739 
z
M 2432 2298 
Q 2432 2458 2323 2570 
Q 2214 2682 2054 2682 
Q 1792 2682 1459 2368 
Q 1133 2054 921 1606 
Q 710 1158 710 762 
Q 710 269 1050 269 
Q 1312 269 1574 499 
Q 1901 781 2166 1341 
Q 2432 1901 2432 2298 
z
" transform="scale(0.015625)"/>
     <path id="STIXGeneral-Regular-20" d="M 4077 2048 
L 307 2048 
L 307 2470 
L 4077 2470 
L 4077 2048 
z
M 4077 768 
L 307 768 
L 307 1190 
L 4077 1190 
L 4077 768 
z
" transform="scale(0.015625)"/>
     <path id="STIXGeneral-Regular-33" d="M 102 4237 
L 1760 4237 
Q 2669 4237 3149 3834 
Q 3469 3565 3469 3072 
Q 3469 2560 3104 2234 
Q 2835 1990 2553 1916 
Q 2272 1843 1734 1843 
Q 1549 1843 1293 1862 
L 1293 717 
Q 1293 352 1398 246 
Q 1504 141 1894 122 
L 1894 0 
L 102 0 
L 102 122 
Q 474 147 557 256 
Q 640 365 640 781 
L 640 3526 
Q 640 3885 547 3987 
Q 454 4090 102 4115 
L 102 4237 
z
M 1293 3770 
L 1293 2118 
Q 1510 2099 1683 2099 
Q 2202 2099 2486 2352 
Q 2771 2605 2771 3040 
Q 2771 3558 2476 3779 
Q 2182 4000 1517 4000 
Q 1382 4000 1337 3952 
Q 1293 3904 1293 3770 
z
" transform="scale(0.015625)"/>
     <path id="STIXGeneral-Regular-2c" d="M 2016 0 
L 115 0 
L 115 122 
Q 518 134 627 240 
Q 736 346 736 717 
L 736 3526 
Q 736 3898 633 3994 
Q 531 4090 115 4115 
L 115 4237 
L 2016 4237 
L 2016 4115 
Q 1613 4096 1501 3993 
Q 1389 3891 1389 3526 
L 1389 717 
Q 1389 358 1504 246 
Q 1619 134 2016 122 
L 2016 0 
z
" transform="scale(0.015625)"/>
     <path id="STIXGeneral-Italic-218" d="M 3021 2810 
L 3136 2810 
Q 3648 2810 3898 2598 
Q 4186 2355 4186 1824 
Q 4186 1357 3910 838 
Q 3667 390 3334 160 
Q 3002 -70 2669 -70 
Q 2438 -70 2281 3 
Q 2125 77 2064 160 
Q 2003 243 1939 384 
Q 1741 147 1533 38 
Q 1325 -70 998 -70 
Q 659 -70 416 160 
Q 173 390 173 832 
Q 173 1101 237 1350 
Q 403 1965 883 2387 
Q 1363 2810 2010 2810 
L 2125 2810 
L 2125 2707 
Q 1606 2707 1267 2291 
Q 1024 1990 867 1526 
Q 710 1062 710 666 
Q 710 64 1075 64 
Q 1286 64 1523 285 
Q 1760 506 1856 774 
Q 1837 915 1837 1101 
Q 1837 1363 1914 1651 
Q 1984 1920 2125 2105 
Q 2266 2291 2432 2291 
Q 2656 2291 2656 1997 
Q 2656 1530 2387 1062 
Q 2272 864 2189 736 
Q 2176 691 2176 602 
Q 2176 384 2288 224 
Q 2400 64 2592 64 
Q 3040 64 3341 627 
Q 3482 896 3565 1270 
Q 3648 1645 3648 1971 
Q 3648 2240 3616 2362 
Q 3565 2566 3411 2636 
Q 3258 2707 3021 2707 
L 3021 2810 
z
" transform="scale(0.015625)"/>
     <path id="STIXGeneral-Regular-b" d="M 1946 -1030 
L 1869 -1133 
Q 1126 -710 716 32 
Q 307 774 307 1613 
Q 307 3386 1888 4326 
L 1946 4224 
Q 1293 3667 1075 3126 
Q 858 2586 858 1632 
Q 858 685 1082 96 
Q 1306 -493 1946 -1030 
z
" transform="scale(0.015625)"/>
     <path id="STIXGeneral-Italic-51" d="M 2944 749 
L 3034 666 
Q 2707 218 2534 80 
Q 2362 -58 2138 -58 
Q 2010 -58 1923 28 
Q 1837 115 1837 288 
Q 1837 390 1939 768 
L 2221 1805 
Q 2310 2150 2310 2310 
Q 2310 2496 2157 2496 
Q 1971 2496 1750 2275 
Q 1530 2054 1210 1587 
Q 998 1274 899 1024 
Q 800 774 570 0 
L 90 0 
L 704 2240 
Q 717 2304 717 2349 
Q 717 2445 630 2480 
Q 544 2515 301 2522 
L 301 2624 
Q 550 2675 857 2729 
Q 1165 2784 1338 2822 
L 1363 2810 
L 934 1414 
Q 1408 2170 1753 2496 
Q 2099 2822 2413 2822 
Q 2611 2822 2720 2716 
Q 2829 2611 2829 2432 
Q 2829 2272 2765 2048 
L 2406 749 
Q 2317 429 2317 358 
Q 2317 243 2419 243 
Q 2541 243 2810 582 
Q 2854 634 2944 749 
z
" transform="scale(0.015625)"/>
     <path id="STIXGeneral-Regular-425" d="M 3974 1408 
L 410 1408 
L 410 1830 
L 3974 1830 
L 3974 1408 
z
" transform="scale(0.015625)"/>
     <path id="STIXGeneral-Regular-c" d="M 186 4224 
L 262 4326 
Q 992 3891 1408 3148 
Q 1824 2406 1824 1581 
Q 1824 -166 243 -1133 
L 186 -1030 
Q 845 -486 1059 54 
Q 1274 595 1274 1562 
Q 1274 2534 1059 3120 
Q 845 3706 186 4224 
z
" transform="scale(0.015625)"/>
    </defs>
    <use xlink:href="#STIXGeneral-Italic-4c" transform="translate(0 0.384375)"/>
    <use xlink:href="#STIXGeneral-Regular-d" transform="translate(52.385285 41.684375) scale(0.7)"/>
    <use xlink:href="#STIXGeneral-Italic-54" transform="translate(27.799973 -30.515625) scale(0.7)"/>
    <use xlink:href="#STIXGeneral-Regular-20" transform="translate(125.885253 0.384375)"/>
    <use xlink:href="#STIXGeneral-Regular-33" transform="translate(214.385192 0.384375)"/>
    <use xlink:href="#STIXGeneral-Regular-2c" transform="translate(270.085143 0.384375)"/>
    <use xlink:href="#STIXGeneral-Italic-218" transform="translate(304.960116 -14.615625) scale(0.7)"/>
    <use xlink:href="#STIXGeneral-Regular-b" transform="translate(357.480067 0.384375)"/>
    <use xlink:href="#STIXGeneral-Italic-51" transform="translate(390.780039 0.384375)"/>
    <use xlink:href="#STIXGeneral-Regular-d" transform="translate(460.889681 41.684375) scale(0.7)"/>
    <use xlink:href="#STIXGeneral-Regular-425" transform="translate(534.389649 0.384375)"/>
    <use xlink:href="#STIXGeneral-Italic-51" transform="translate(622.889588 0.384375)"/>
    <use xlink:href="#STIXGeneral-Regular-c" transform="translate(672.889542 0.384375)"/>
   </g>
  </g>
 </g>
</svg>
